name rise42.5664peak47.7979fall81.9185.mot
datacolumns 19
datarows 23
range 12.66495300000000 12.70162000000000
endheader
time	ground_force1_vx	ground_force1_vy	ground_force1_vz	ground_force1_px	ground_force1_py	ground_force1_pz	ground_force2_vx	ground_force2_vy	ground_force2_vz	ground_force2_px	ground_force2_py	ground_force2_pz	ground_torque1_x	ground_torque1_y	ground_torque1_z	ground_torque2_x	ground_torque2_y	ground_torque2_z	
12.66495300000000	-12.35578100000000	44.81002600000000	-12.94712300000000	0.31663700000000	0.00000000000000	0.07085100000000	-50.91250800000000	817.66220399999997	-60.70044600000000	0.09431600000000	0.00000000000000	-0.09809200000000	0.00000000000000	-7.47963400000000	0.00000000000000	0.00000000000000	-21.57081300000000	0.00000000000000	
12.66661600000000	-13.51973400000000	50.94431100000000	-14.25109300000000	0.31793500000000	0.00000000000000	0.07163000000000	-51.38502800000000	814.82465700000000	-60.25283700000000	0.09377500000000	0.00000000000000	-0.09804600000000	0.00000000000000	-8.24427500000000	0.00000000000000	0.00000000000000	-21.51206700000000	0.00000000000000	
12.66828500000000	-14.51068100000000	56.95021500000000	-15.39518500000000	0.31908100000000	0.00000000000000	0.07237700000000	-51.86160100000000	811.83409900000004	-59.76783700000000	0.09323200000000	0.00000000000000	-0.09799500000000	0.00000000000000	-8.91774900000000	0.00000000000000	0.00000000000000	-21.45106500000000	0.00000000000000	
12.66995400000000	-15.30973400000000	62.76597000000000	-16.35965500000000	0.32009800000000	0.00000000000000	0.07309700000000	-52.34202100000000	808.69005100000004	-59.24561100000000	0.09268800000000	0.00000000000000	-0.09793900000000	0.00000000000000	-9.48863700000000	0.00000000000000	0.00000000000000	-21.38787000000000	0.00000000000000	
12.67163100000000	-15.90845800000000	68.35629700000000	-17.13517800000000	0.32100200000000	0.00000000000000	0.07379100000000	-52.82602200000000	805.39204700000005	-58.68639800000000	0.09214100000000	0.00000000000000	-0.09787800000000	0.00000000000000	-9.95166400000000	0.00000000000000	0.00000000000000	-21.32253700000000	0.00000000000000	
12.67328300000000	-16.30805800000000	73.71148200000000	-17.72209900000000	0.32181000000000	0.00000000000000	0.07446100000000	-53.31327400000000	801.93963399999996	-58.09051100000000	0.09159200000000	0.00000000000000	-0.09781300000000	0.00000000000000	-10.30724500000000	0.00000000000000	0.00000000000000	-21.25511300000000	0.00000000000000	
12.67495100000000	-16.51792400000000	78.84451500000000	-18.12902000000000	0.32253500000000	0.00000000000000	0.07511000000000	-53.80338200000000	798.33236399999998	-57.45833700000000	0.09104000000000	0.00000000000000	-0.09774200000000	0.00000000000000	-10.56064100000000	0.00000000000000	0.00000000000000	-21.18564000000000	0.00000000000000	
12.67661800000000	-16.55375500000000	83.78684900000000	-18.37094700000000	0.32318900000000	0.00000000000000	0.07573800000000	-54.29588700000000	794.56979600000000	-56.79033700000000	0.09048600000000	0.00000000000000	-0.09766700000000	0.00000000000000	-10.72086400000000	0.00000000000000	0.00000000000000	-21.11414900000000	0.00000000000000	
12.67828500000000	-16.43548400000000	88.58337800000000	-18.46724500000000	0.32378100000000	0.00000000000000	0.07634700000000	-54.79026500000000	790.65149099999996	-56.08704500000000	0.08992900000000	0.00000000000000	-0.09758700000000	0.00000000000000	-10.79946500000000	0.00000000000000	0.00000000000000	-21.04066700000000	0.00000000000000	
12.67995300000000	-16.18523300000000	93.28718700000000	-18.43958200000000	0.32432100000000	0.00000000000000	0.07693800000000	-55.28592300000000	786.57700799999998	-55.34906800000000	0.08936900000000	0.00000000000000	-0.09750200000000	0.00000000000000	-10.80932100000000	0.00000000000000	0.00000000000000	-20.96520900000000	0.00000000000000	
12.68162200000000	-15.82542700000000	97.95453100000000	-18.31004400000000	0.32481500000000	0.00000000000000	0.07751200000000	-55.78220400000000	782.34591000000000	-54.57708700000000	0.08880600000000	0.00000000000000	-0.09741200000000	0.00000000000000	-10.76352800000000	0.00000000000000	0.00000000000000	-20.88778200000000	0.00000000000000	
12.68328000000000	-15.37721400000000	102.64041899999999	-18.09954200000000	0.32527200000000	0.00000000000000	0.07807100000000	-56.27838000000000	777.95775700000002	-53.77185200000000	0.08824000000000	0.00000000000000	-0.09731600000000	0.00000000000000	-10.67446600000000	0.00000000000000	0.00000000000000	-20.80838400000000	0.00000000000000	
12.68494800000000	-14.85926100000000	107.39502700000000	-17.82658100000000	0.32569600000000	0.00000000000000	0.07861300000000	-56.77366000000000	773.41210899999999	-52.93418300000000	0.08767100000000	0.00000000000000	-0.09721600000000	0.00000000000000	-10.55308000000000	0.00000000000000	0.00000000000000	-20.72700200000000	0.00000000000000	
12.68661800000000	-14.28693700000000	112.26108700000000	-17.50642400000000	0.32609200000000	0.00000000000000	0.07914100000000	-57.26718500000000	768.70853000000000	-52.06497200000000	0.08710000000000	0.00000000000000	-0.09711000000000	0.00000000000000	-10.40840100000000	0.00000000000000	0.00000000000000	-20.64361400000000	0.00000000000000	
12.68828100000000	-13.67189300000000	117.27227600000001	-17.15065000000000	0.32646500000000	0.00000000000000	0.07965400000000	-57.75802800000000	763.84658700000000	-51.16517500000000	0.08652700000000	0.00000000000000	-0.09699900000000	0.00000000000000	-10.24728300000000	0.00000000000000	0.00000000000000	-20.55818800000000	0.00000000000000	
12.68995000000000	-13.02199900000000	122.45253300000000	-16.76706700000000	0.32681800000000	0.00000000000000	0.08015300000000	-58.24520100000000	758.82585700000004	-50.23581700000000	0.08595100000000	0.00000000000000	-0.09688300000000	0.00000000000000	-10.07436600000000	0.00000000000000	0.00000000000000	-20.47068100000000	0.00000000000000	
12.69161700000000	-12.34156600000000	127.81621600000000	-16.35991600000000	0.32715400000000	0.00000000000000	0.08063800000000	-58.72764900000000	753.64592900000002	-49.27798600000000	0.08537300000000	0.00000000000000	-0.09676200000000	0.00000000000000	-9.89219300000000	0.00000000000000	0.00000000000000	-20.38103900000000	0.00000000000000	
12.69328400000000	-11.63180300000000	133.36890000000000	-15.93031000000000	0.32747500000000	0.00000000000000	0.08111000000000	-59.20425700000000	748.30641300000002	-48.29283400000000	0.08479300000000	0.00000000000000	-0.09663500000000	0.00000000000000	-9.70147400000000	0.00000000000000	0.00000000000000	-20.28919800000000	0.00000000000000	
12.69495100000000	-10.89141100000000	139.10866200000001	-15.47682200000000	0.32778500000000	0.00000000000000	0.08156900000000	-59.67384900000000	742.80694400000004	-47.28157300000000	0.08421200000000	0.00000000000000	-0.09650400000000	0.00000000000000	-9.50142900000000	0.00000000000000	0.00000000000000	-20.19508200000000	0.00000000000000	
12.69661700000000	-10.11726600000000	145.02766199999999	-14.99615800000000	0.32808400000000	0.00000000000000	0.08201500000000	-60.13519100000000	737.14719600000001	-46.24547000000000	0.08363000000000	0.00000000000000	-0.09636700000000	0.00000000000000	-9.29018200000000	0.00000000000000	0.00000000000000	-20.09860400000000	0.00000000000000	
12.69828500000000	-9.30510400000000	151.11383200000000	-14.48384400000000	0.32837300000000	0.00000000000000	0.08244900000000	-60.58699300000000	731.32688399999995	-45.18585300000000	0.08304700000000	0.00000000000000	-0.09622500000000	0.00000000000000	-9.06515700000000	0.00000000000000	0.00000000000000	-19.99966800000000	0.00000000000000	
12.69995200000000	-8.45017200000000	157.35255300000000	-13.93487100000000	0.32865400000000	0.00000000000000	0.08286900000000	-61.02791100000000	725.34578199999999	-44.10409800000000	0.08246400000000	0.00000000000000	-0.09607700000000	0.00000000000000	-8.82346200000000	0.00000000000000	0.00000000000000	-19.89816400000000	0.00000000000000	
12.70162000000000	-7.54779400000000	163.72817300000000	-13.34427300000000	0.32892700000000	0.00000000000000	0.08327800000000	-61.45655300000000	719.20372999999995	-43.00163200000000	0.08188100000000	0.00000000000000	-0.09592500000000	0.00000000000000	-8.56221300000000	0.00000000000000	0.00000000000000	-19.79397400000000	0.00000000000000	
